<?xml version="1.0" encoding="UTF-8" standalone="no"?>
<!-- Created with Inkscape (http://www.inkscape.org/) -->

<svg
   xmlns:dc="http://purl.org/dc/elements/1.1/"
   xmlns:cc="http://creativecommons.org/ns#"
   xmlns:rdf="http://www.w3.org/1999/02/22-rdf-syntax-ns#"
   xmlns:svg="http://www.w3.org/2000/svg"
   xmlns="http://www.w3.org/2000/svg"
   xmlns:sodipodi="http://sodipodi.sourceforge.net/DTD/sodipodi-0.dtd"
   xmlns:inkscape="http://www.inkscape.org/namespaces/inkscape"
   width="237.09375"
   height="213.78125"
   id="svg2"
   version="1.1"
   inkscape:version="0.48.2 r9819"
   sodipodi:docname="vision-grid.svg"
   inkscape:export-filename="/home/lev/Work/projects/bionet/python/notebooks/vision-grid.png"
   inkscape:export-xdpi="75"
   inkscape:export-ydpi="75">
  <defs
     id="defs4" />
  <sodipodi:namedview
     id="base"
     pagecolor="#ffffff"
     bordercolor="#666666"
     borderopacity="1.0"
     inkscape:pageopacity="0.0"
     inkscape:pageshadow="2"
     inkscape:zoom="1.979899"
     inkscape:cx="-49.335148"
     inkscape:cy="113.35944"
     inkscape:document-units="px"
     inkscape:current-layer="layer1"
     showgrid="true"
     inkscape:snap-global="true"
     showguides="true"
     inkscape:guide-bbox="true"
     fit-margin-top="5"
     fit-margin-left="5"
     fit-margin-right="5"
     fit-margin-bottom="5"
     inkscape:window-width="2560"
     inkscape:window-height="1331"
     inkscape:window-x="0"
     inkscape:window-y="0"
     inkscape:window-maximized="1">
    <inkscape:grid
       type="axonomgrid"
       id="grid2989"
       units="mm"
       empspacing="5"
       visible="true"
       enabled="true"
       snapvisiblegridlinesonly="true"
       originx="-36.987827mm"
       originy="-172.81471mm" />
    <sodipodi:guide
       orientation="1,0"
       position="18.680483,76.128468"
       id="guide3063" />
    <sodipodi:guide
       orientation="1,0"
       position="49.366423,58.411928"
       id="guide3065" />
    <sodipodi:guide
       orientation="1,0"
       position="80.052363,40.695398"
       id="guide3067" />
    <sodipodi:guide
       orientation="1,0"
       position="110.7383,47.782008"
       id="guide3069" />
    <sodipodi:guide
       orientation="1,0"
       position="141.42424,76.128468"
       id="guide3071" />
    <sodipodi:guide
       orientation="1,0"
       position="172.11018,76.128468"
       id="guide3073" />
    <sodipodi:guide
       orientation="1,0"
       position="202.79611,76.128468"
       id="guide3075" />
    <sodipodi:guide
       orientation="-0.5,0.8660254"
       position="-88.72031,-39.029012"
       id="guide3273" />
    <sodipodi:guide
       orientation="-0.5,0.8660254"
       position="-134.74922,-30.170742"
       id="guide3275" />
    <sodipodi:guide
       orientation="-0.5,0.8660254"
       position="-272.83595,-56.745552"
       id="guide3277" />
    <sodipodi:guide
       orientation="-0.5,0.8660254"
       position="-288.17892,-30.170742"
       id="guide3279" />
    <sodipodi:guide
       orientation="-0.5,0.8660254"
       position="0.268916,171.79778"
       id="guide4378" />
    <sodipodi:guide
       orientation="-0.5,0.8660254"
       position="18.680479,-12.454179"
       id="guide3985" />
    <sodipodi:guide
       orientation="-0.5,0.8660254"
       position="49.366423,-30.170712"
       id="guide3987" />
    <sodipodi:guide
       orientation="0.5,0.8660254"
       position="141.42424,-30.170717"
       id="guide3989" />
    <sodipodi:guide
       orientation="0.5,0.8660254"
       position="202.79611,-30.170712"
       id="guide3991" />
    <sodipodi:guide
       orientation="0.5,0.8660254"
       position="202.79611,5.262353"
       id="guide3993" />
    <sodipodi:guide
       orientation="0.5,0.8660254"
       position="248.82502,14.120624"
       id="guide3995" />
    <sodipodi:guide
       orientation="0.5,0.8660254"
       position="233.48206,58.411962"
       id="guide3997" />
    <sodipodi:guide
       orientation="0.5,0.8660254"
       position="233.48206,93.845032"
       id="guide3999" />
    <sodipodi:guide
       orientation="0.5,0.8660254"
       position="248.82502,120.41984"
       id="guide4001" />
    <sodipodi:guide
       orientation="0.5,0.8660254"
       position="279.51096,138.13637"
       id="guide4003" />
  </sodipodi:namedview>
  <metadata
     id="metadata7">
    <rdf:RDF>
      <cc:Work
         rdf:about="">
        <dc:format>image/svg+xml</dc:format>
        <dc:type
           rdf:resource="http://purl.org/dc/dcmitype/StillImage" />
        <dc:title />
      </cc:Work>
    </rdf:RDF>
  </metadata>
  <g
     inkscape:label="Layer 1"
     inkscape:groupmode="layer"
     id="layer1"
     transform="translate(-119.40625,-214.90625)">
    <path
       style="fill:none;stroke:#000000;stroke-width:4;stroke-linecap:butt;stroke-linejoin:miter;stroke-miterlimit:4;stroke-opacity:1;stroke-dasharray:none"
       d="m 313.73762,405.88189 8.84375,15.34375 17.71875,0 8.875,-15.34375 -8.875,-15.34375 -17.71875,0 -8.84375,15.34375 z"
       id="path3835"
       inkscape:connector-curvature="0" />
    <path
       inkscape:connector-curvature="0"
       style="fill:none;stroke:#000000;stroke-width:4;stroke-linecap:butt;stroke-linejoin:miter;stroke-miterlimit:4;stroke-opacity:1;stroke-dasharray:none"
       d="m 313.26181,375.15343 8.84375,15.34375 17.71875,0 8.875,-15.34375 -8.875,-15.34375 -17.71875,0 -8.84375,15.34375 z"
       id="path3835-9" />
    <path
       inkscape:connector-curvature="0"
       style="fill:none;stroke:#000000;stroke-width:4;stroke-linecap:butt;stroke-linejoin:miter;stroke-miterlimit:4;stroke-opacity:1;stroke-dasharray:none"
       d="m 313.07958,344.35014 8.84375,15.34375 17.71875,0 8.875,-15.34375 -8.875,-15.34375 -17.71875,0 -8.84375,15.34375 z"
       id="path3835-98" />
    <path
       inkscape:connector-curvature="0"
       style="fill:none;stroke:#000000;stroke-width:4;stroke-linecap:butt;stroke-linejoin:miter;stroke-miterlimit:4;stroke-opacity:1;stroke-dasharray:none"
       d="m 286.81973,390.6472 8.84375,15.34375 17.71875,0 8.875,-15.34375 -8.875,-15.34375 -17.71875,0 -8.84375,15.34375 z"
       id="path3835-1" />
    <path
       inkscape:connector-curvature="0"
       style="fill:none;stroke:#000000;stroke-width:4;stroke-linecap:butt;stroke-linejoin:miter;stroke-miterlimit:4;stroke-opacity:1;stroke-dasharray:none"
       d="m 286.59944,360.11994 8.84375,15.34375 17.71875,0 8.875,-15.34375 -8.875,-15.34375 -17.71875,0 -8.84375,15.34375 z"
       id="path3835-3" />
    <path
       inkscape:connector-curvature="0"
       style="fill:none;stroke:#000000;stroke-width:4;stroke-linecap:butt;stroke-linejoin:miter;stroke-miterlimit:4;stroke-opacity:1;stroke-dasharray:none"
       d="m 313.20442,313.72972 8.84375,15.34375 17.71875,0 8.875,-15.34375 -8.875,-15.34375 -17.71875,0 -8.84375,15.34375 z"
       id="path3835-98-4" />
    <path
       inkscape:connector-curvature="0"
       style="fill:none;stroke:#000000;stroke-width:4;stroke-linecap:butt;stroke-linejoin:miter;stroke-miterlimit:4;stroke-opacity:1;stroke-dasharray:none"
       d="m 286.5357,329.23787 8.84375,15.34375 17.71875,0 8.875,-15.34375 -8.875,-15.34375 -17.71875,0 -8.84375,15.34375 z"
       id="path3835-98-2" />
    <path
       inkscape:connector-curvature="0"
       style="fill:none;stroke:#000000;stroke-width:4;stroke-linecap:butt;stroke-linejoin:miter;stroke-miterlimit:4;stroke-opacity:1;stroke-dasharray:none"
       d="m 313.0174,283.21219 8.84375,15.34375 17.71875,0 8.875,-15.34375 -8.875,-15.34375 -17.71875,0 -8.84375,15.34375 z"
       id="path3835-98-46" />
    <path
       inkscape:connector-curvature="0"
       style="fill:none;stroke:#000000;stroke-width:4;stroke-linecap:butt;stroke-linejoin:miter;stroke-miterlimit:4;stroke-opacity:1;stroke-dasharray:none"
       d="m 313.27382,252.55928 8.84375,15.34375 17.71875,0 8.875,-15.34375 -8.875,-15.34375 -17.71875,0 -8.84375,15.34375 z"
       id="path3835-98-20" />
    <path
       inkscape:connector-curvature="0"
       style="fill:none;stroke:#000000;stroke-width:4;stroke-linecap:butt;stroke-linejoin:miter;stroke-miterlimit:4;stroke-opacity:1;stroke-dasharray:none"
       d="m 286.48923,298.49749 8.84375,15.34375 17.71875,0 8.875,-15.34375 -8.875,-15.34375 -17.71875,0 -8.84375,15.34375 z"
       id="path3835-98-7" />
    <path
       inkscape:connector-curvature="0"
       style="fill:none;stroke:#000000;stroke-width:4;stroke-linecap:butt;stroke-linejoin:miter;stroke-miterlimit:4;stroke-opacity:1;stroke-dasharray:none"
       d="m 286.49312,268.02596 8.84375,15.34375 17.71875,0 8.875,-15.34375 -8.875,-15.34375 -17.71875,0 -8.84375,15.34375 z"
       id="path3835-98-0" />
    <path
       inkscape:connector-curvature="0"
       style="fill:none;stroke:#000000;stroke-width:4;stroke-linecap:butt;stroke-linejoin:miter;stroke-miterlimit:4;stroke-opacity:1;stroke-dasharray:none"
       d="m 286.44259,237.25444 8.84375,15.34375 17.71875,0 8.875,-15.34375 -8.875,-15.34375 -17.71875,0 -8.84375,15.34375 z"
       id="path3835-98-21" />
    <path
       inkscape:connector-curvature="0"
       style="fill:none;stroke:#000000;stroke-width:4;stroke-linecap:butt;stroke-linejoin:miter;stroke-miterlimit:4;stroke-opacity:1;stroke-dasharray:none"
       d="m 260.37318,406.34689 8.84375,15.34375 17.71875,0 8.875,-15.34375 -8.875,-15.34375 -17.71875,0 -8.84375,15.34375 z"
       id="path3835-1-2" />
    <path
       inkscape:connector-curvature="0"
       style="fill:none;stroke:#000000;stroke-width:4;stroke-linecap:butt;stroke-linejoin:miter;stroke-miterlimit:4;stroke-opacity:1;stroke-dasharray:none"
       d="m 260.15289,375.81963 8.84375,15.34375 17.71875,0 8.875,-15.34375 -8.875,-15.34375 -17.71875,0 -8.84375,15.34375 z"
       id="path3835-3-3" />
    <path
       inkscape:connector-curvature="0"
       style="fill:none;stroke:#000000;stroke-width:4;stroke-linecap:butt;stroke-linejoin:miter;stroke-miterlimit:4;stroke-opacity:1;stroke-dasharray:none"
       d="m 260.08915,344.93756 8.84375,15.34375 17.71875,0 8.875,-15.34375 -8.875,-15.34375 -17.71875,0 -8.84375,15.34375 z"
       id="path3835-98-2-3" />
    <path
       inkscape:connector-curvature="0"
       style="fill:none;stroke:#000000;stroke-width:4;stroke-linecap:butt;stroke-linejoin:miter;stroke-miterlimit:4;stroke-opacity:1;stroke-dasharray:none"
       d="m 260.04268,314.19718 8.84375,15.34375 17.71875,0 8.875,-15.34375 -8.875,-15.34375 -17.71875,0 -8.84375,15.34375 z"
       id="path3835-98-7-9" />
    <path
       inkscape:connector-curvature="0"
       style="fill:none;stroke:#000000;stroke-width:4;stroke-linecap:butt;stroke-linejoin:miter;stroke-miterlimit:4;stroke-opacity:1;stroke-dasharray:none"
       d="m 260.04657,283.72565 8.84375,15.34375 17.71875,0 8.875,-15.34375 -8.875,-15.34375 -17.71875,0 -8.84375,15.34375 z"
       id="path3835-98-0-8" />
    <path
       inkscape:connector-curvature="0"
       style="fill:none;stroke:#000000;stroke-width:4;stroke-linecap:butt;stroke-linejoin:miter;stroke-miterlimit:4;stroke-opacity:1;stroke-dasharray:none"
       d="m 259.99604,252.95413 8.84375,15.34375 17.71875,0 8.875,-15.34375 -8.875,-15.34375 -17.71875,0 -8.84375,15.34375 z"
       id="path3835-98-21-6" />
    <path
       inkscape:connector-curvature="0"
       style="fill:none;stroke:#000000;stroke-width:4;stroke-linecap:butt;stroke-linejoin:miter;stroke-miterlimit:4;stroke-opacity:1;stroke-dasharray:none"
       d="m 233.4137,391.01926 8.84375,15.34375 17.71875,0 8.875,-15.34375 -8.875,-15.34375 -17.71875,0 -8.84375,15.34375 z"
       id="path3835-1-9" />
    <path
       inkscape:connector-curvature="0"
       style="fill:none;stroke:#000000;stroke-width:4;stroke-linecap:butt;stroke-linejoin:miter;stroke-miterlimit:4;stroke-opacity:1;stroke-dasharray:none"
       d="m 233.19341,360.492 8.84375,15.34375 17.71875,0 8.875,-15.34375 -8.875,-15.34375 -17.71875,0 -8.84375,15.34375 z"
       id="path3835-3-7" />
    <path
       inkscape:connector-curvature="0"
       style="fill:none;stroke:#000000;stroke-width:4;stroke-linecap:butt;stroke-linejoin:miter;stroke-miterlimit:4;stroke-opacity:1;stroke-dasharray:none"
       d="m 233.12967,329.60993 8.84375,15.34375 17.71875,0 8.875,-15.34375 -8.875,-15.34375 -17.71875,0 -8.84375,15.34375 z"
       id="path3835-98-2-6" />
    <path
       inkscape:connector-curvature="0"
       style="fill:none;stroke:#000000;stroke-width:4;stroke-linecap:butt;stroke-linejoin:miter;stroke-miterlimit:4;stroke-opacity:1;stroke-dasharray:none"
       d="m 233.0832,298.86955 8.84375,15.34375 17.71875,0 8.875,-15.34375 -8.875,-15.34375 -17.71875,0 -8.84375,15.34375 z"
       id="path3835-98-7-5" />
    <path
       inkscape:connector-curvature="0"
       style="fill:none;stroke:#000000;stroke-width:4;stroke-linecap:butt;stroke-linejoin:miter;stroke-miterlimit:4;stroke-opacity:1;stroke-dasharray:none"
       d="m 233.08709,268.39802 8.84375,15.34375 17.71875,0 8.875,-15.34375 -8.875,-15.34375 -17.71875,0 -8.84375,15.34375 z"
       id="path3835-98-0-4" />
    <path
       inkscape:connector-curvature="0"
       style="fill:none;stroke:#000000;stroke-width:4;stroke-linecap:butt;stroke-linejoin:miter;stroke-miterlimit:4;stroke-opacity:1;stroke-dasharray:none"
       d="m 233.03656,237.6265 8.84375,15.34375 17.71875,0 8.875,-15.34375 -8.875,-15.34375 -17.71875,0 -8.84375,15.34375 z"
       id="path3835-98-21-3" />
    <path
       inkscape:connector-curvature="0"
       style="fill:none;stroke:#000000;stroke-width:4;stroke-linecap:butt;stroke-linejoin:miter;stroke-miterlimit:4;stroke-opacity:1;stroke-dasharray:none"
       d="m 206.9555,406.09947 8.84375,15.34375 17.71875,0 8.875,-15.34375 -8.875,-15.34375 -17.71875,0 -8.84375,15.34375 z"
       id="path3835-1-9-5" />
    <path
       inkscape:connector-curvature="0"
       style="fill:none;stroke:#000000;stroke-width:4;stroke-linecap:butt;stroke-linejoin:miter;stroke-miterlimit:4;stroke-opacity:1;stroke-dasharray:none"
       d="m 206.73521,375.57221 8.84375,15.34375 17.71875,0 8.875,-15.34375 -8.875,-15.34375 -17.71875,0 -8.84375,15.34375 z"
       id="path3835-3-7-7" />
    <path
       inkscape:connector-curvature="0"
       style="fill:none;stroke:#000000;stroke-width:4;stroke-linecap:butt;stroke-linejoin:miter;stroke-miterlimit:4;stroke-opacity:1;stroke-dasharray:none"
       d="m 206.67147,344.69014 8.84375,15.34375 17.71875,0 8.875,-15.34375 -8.875,-15.34375 -17.71875,0 -8.84375,15.34375 z"
       id="path3835-98-2-6-1" />
    <path
       inkscape:connector-curvature="0"
       style="fill:none;stroke:#000000;stroke-width:4;stroke-linecap:butt;stroke-linejoin:miter;stroke-miterlimit:4;stroke-opacity:1;stroke-dasharray:none"
       d="m 206.625,313.94976 8.84375,15.34375 17.71875,0 8.875,-15.34375 -8.875,-15.34375 -17.71875,0 -8.84375,15.34375 z"
       id="path3835-98-7-5-0" />
    <path
       inkscape:connector-curvature="0"
       style="fill:none;stroke:#000000;stroke-width:4;stroke-linecap:butt;stroke-linejoin:miter;stroke-miterlimit:4;stroke-opacity:1;stroke-dasharray:none"
       d="m 206.62889,283.47823 8.84375,15.34375 17.71875,0 8.875,-15.34375 -8.875,-15.34375 -17.71875,0 -8.84375,15.34375 z"
       id="path3835-98-0-4-7" />
    <path
       inkscape:connector-curvature="0"
       style="fill:none;stroke:#000000;stroke-width:4;stroke-linecap:butt;stroke-linejoin:miter;stroke-miterlimit:4;stroke-opacity:1;stroke-dasharray:none"
       d="m 206.57836,252.70671 8.84375,15.34375 17.71875,0 8.875,-15.34375 -8.875,-15.34375 -17.71875,0 -8.84375,15.34375 z"
       id="path3835-98-21-3-1" />
    <path
       inkscape:connector-curvature="0"
       style="fill:none;stroke:#000000;stroke-width:4;stroke-linecap:butt;stroke-linejoin:miter;stroke-miterlimit:4;stroke-opacity:1;stroke-dasharray:none"
       d="m 180.06986,390.80485 8.84375,15.34375 17.71875,0 8.875,-15.34375 -8.875,-15.34375 -17.71875,0 -8.84375,15.34375 z"
       id="path3835-1-9-8" />
    <path
       inkscape:connector-curvature="0"
       style="fill:none;stroke:#000000;stroke-width:4;stroke-linecap:butt;stroke-linejoin:miter;stroke-miterlimit:4;stroke-opacity:1;stroke-dasharray:none"
       d="m 179.84957,360.27759 8.84375,15.34375 17.71875,0 8.875,-15.34375 -8.875,-15.34375 -17.71875,0 -8.84375,15.34375 z"
       id="path3835-3-7-8" />
    <path
       inkscape:connector-curvature="0"
       style="fill:none;stroke:#000000;stroke-width:4;stroke-linecap:butt;stroke-linejoin:miter;stroke-miterlimit:4;stroke-opacity:1;stroke-dasharray:none"
       d="m 179.78583,329.39552 8.84375,15.34375 17.71875,0 8.875,-15.34375 -8.875,-15.34375 -17.71875,0 -8.84375,15.34375 z"
       id="path3835-98-2-6-4" />
    <path
       inkscape:connector-curvature="0"
       style="fill:none;stroke:#000000;stroke-width:4;stroke-linecap:butt;stroke-linejoin:miter;stroke-miterlimit:4;stroke-opacity:1;stroke-dasharray:none"
       d="m 179.73936,298.65514 8.84375,15.34375 17.71875,0 8.875,-15.34375 -8.875,-15.34375 -17.71875,0 -8.84375,15.34375 z"
       id="path3835-98-7-5-4" />
    <path
       inkscape:connector-curvature="0"
       style="fill:none;stroke:#000000;stroke-width:4;stroke-linecap:butt;stroke-linejoin:miter;stroke-miterlimit:4;stroke-opacity:1;stroke-dasharray:none"
       d="m 179.74325,268.18361 8.84375,15.34375 17.71875,0 8.875,-15.34375 -8.875,-15.34375 -17.71875,0 -8.84375,15.34375 z"
       id="path3835-98-0-4-2" />
    <path
       inkscape:connector-curvature="0"
       style="fill:none;stroke:#000000;stroke-width:4;stroke-linecap:butt;stroke-linejoin:miter;stroke-miterlimit:4;stroke-opacity:1;stroke-dasharray:none"
       d="m 179.69272,237.41209 8.84375,15.34375 17.71875,0 8.875,-15.34375 -8.875,-15.34375 -17.71875,0 -8.84375,15.34375 z"
       id="path3835-98-21-3-0" />
    <path
       inkscape:connector-curvature="0"
       style="fill:none;stroke:#000000;stroke-width:4;stroke-linecap:butt;stroke-linejoin:miter;stroke-miterlimit:4;stroke-opacity:1;stroke-dasharray:none"
       d="m 154.0605,405.72788 8.84375,15.34375 17.71875,0 8.875,-15.34375 -8.875,-15.34375 -17.71875,0 -8.84375,15.34375 z"
       id="path3835-1-9-3" />
    <path
       inkscape:connector-curvature="0"
       style="fill:none;stroke:#000000;stroke-width:4;stroke-linecap:butt;stroke-linejoin:miter;stroke-miterlimit:4;stroke-opacity:1;stroke-dasharray:none"
       d="m 153.84021,375.20062 8.84375,15.34375 17.71875,0 8.875,-15.34375 -8.875,-15.34375 -17.71875,0 -8.84375,15.34375 z"
       id="path3835-3-7-4" />
    <path
       inkscape:connector-curvature="0"
       style="fill:none;stroke:#000000;stroke-width:4;stroke-linecap:butt;stroke-linejoin:miter;stroke-miterlimit:4;stroke-opacity:1;stroke-dasharray:none"
       d="m 153.77647,344.31855 8.84375,15.34375 17.71875,0 8.875,-15.34375 -8.875,-15.34375 -17.71875,0 -8.84375,15.34375 z"
       id="path3835-98-2-6-12" />
    <path
       inkscape:connector-curvature="0"
       style="fill:none;stroke:#000000;stroke-width:4;stroke-linecap:butt;stroke-linejoin:miter;stroke-miterlimit:4;stroke-opacity:1;stroke-dasharray:none"
       d="m 153.73,313.57817 8.84375,15.34375 17.71875,0 8.875,-15.34375 -8.875,-15.34375 -17.71875,0 -8.84375,15.34375 z"
       id="path3835-98-7-5-45" />
    <path
       inkscape:connector-curvature="0"
       style="fill:none;stroke:#000000;stroke-width:4;stroke-linecap:butt;stroke-linejoin:miter;stroke-miterlimit:4;stroke-opacity:1;stroke-dasharray:none"
       d="m 153.73389,283.10664 8.84375,15.34375 17.71875,0 8.875,-15.34375 -8.875,-15.34375 -17.71875,0 -8.84375,15.34375 z"
       id="path3835-98-0-4-3" />
    <path
       inkscape:connector-curvature="0"
       style="fill:none;stroke:#000000;stroke-width:4;stroke-linecap:butt;stroke-linejoin:miter;stroke-miterlimit:4;stroke-opacity:1;stroke-dasharray:none"
       d="m 153.68336,252.33512 8.84375,15.34375 17.71875,0 8.875,-15.34375 -8.875,-15.34375 -17.71875,0 -8.84375,15.34375 z"
       id="path3835-98-21-3-7" />
    <path
       inkscape:connector-curvature="0"
       style="fill:none;stroke:#000000;stroke-width:4;stroke-linecap:butt;stroke-linejoin:miter;stroke-miterlimit:4;stroke-opacity:1;stroke-dasharray:none"
       d="m 127.10043,390.91098 8.84375,15.34375 17.71875,0 8.875,-15.34375 -8.875,-15.34375 -17.71875,0 -8.84375,15.34375 z"
       id="path3835-1-9-1" />
    <path
       inkscape:connector-curvature="0"
       style="fill:none;stroke:#000000;stroke-width:4;stroke-linecap:butt;stroke-linejoin:miter;stroke-miterlimit:4;stroke-opacity:1;stroke-dasharray:none"
       d="m 126.88014,360.38372 8.84375,15.34375 17.71875,0 8.875,-15.34375 -8.875,-15.34375 -17.71875,0 -8.84375,15.34375 z"
       id="path3835-3-7-88" />
    <path
       inkscape:connector-curvature="0"
       style="fill:none;stroke:#000000;stroke-width:4;stroke-linecap:butt;stroke-linejoin:miter;stroke-miterlimit:4;stroke-opacity:1;stroke-dasharray:none"
       d="m 126.8164,329.50165 8.84375,15.34375 17.71875,0 8.875,-15.34375 -8.875,-15.34375 -17.71875,0 -8.84375,15.34375 z"
       id="path3835-98-2-6-9" />
    <path
       inkscape:connector-curvature="0"
       style="fill:none;stroke:#000000;stroke-width:4;stroke-linecap:butt;stroke-linejoin:miter;stroke-miterlimit:4;stroke-opacity:1;stroke-dasharray:none"
       d="m 126.76993,298.76127 8.84375,15.34375 17.71875,0 8.875,-15.34375 -8.875,-15.34375 -17.71875,0 -8.84375,15.34375 z"
       id="path3835-98-7-5-47" />
    <path
       inkscape:connector-curvature="0"
       style="fill:none;stroke:#000000;stroke-width:4;stroke-linecap:butt;stroke-linejoin:miter;stroke-miterlimit:4;stroke-opacity:1;stroke-dasharray:none"
       d="m 126.77382,268.28974 8.84375,15.34375 17.71875,0 8.875,-15.34375 -8.875,-15.34375 -17.71875,0 -8.84375,15.34375 z"
       id="path3835-98-0-4-73" />
    <path
       inkscape:connector-curvature="0"
       style="fill:none;stroke:#000000;stroke-width:4;stroke-linecap:butt;stroke-linejoin:miter;stroke-miterlimit:4;stroke-opacity:1;stroke-dasharray:none"
       d="m 126.72329,237.51822 8.84375,15.34375 17.71875,0 8.875,-15.34375 -8.875,-15.34375 -17.71875,0 -8.84375,15.34375 z"
       id="path3835-98-21-3-4" />
  </g>
</svg>
