<?xml version="1.0" encoding="UTF-8" standalone="no"?>
<!-- Created with Inkscape (http://www.inkscape.org/) -->

<svg
   xmlns:dc="http://purl.org/dc/elements/1.1/"
   xmlns:cc="http://creativecommons.org/ns#"
   xmlns:rdf="http://www.w3.org/1999/02/22-rdf-syntax-ns#"
   xmlns:svg="http://www.w3.org/2000/svg"
   xmlns="http://www.w3.org/2000/svg"
   xmlns:sodipodi="http://sodipodi.sourceforge.net/DTD/sodipodi-0.dtd"
   xmlns:inkscape="http://www.inkscape.org/namespaces/inkscape"
   width="213.77995"
   height="236.45183"
   id="svg2"
   version="1.1"
   inkscape:version="0.48.4 r9939"
   sodipodi:docname="vision-grid.svg"
   inkscape:export-filename="/home/lev/Work/projects/bionet/python/notebooks/vision-grid.png"
   inkscape:export-xdpi="75"
   inkscape:export-ydpi="75">
  <defs
     id="defs4" />
  <sodipodi:namedview
     id="base"
     pagecolor="#ffffff"
     bordercolor="#666666"
     borderopacity="1.0"
     inkscape:pageopacity="0.0"
     inkscape:pageshadow="2"
     inkscape:zoom="1.979899"
     inkscape:cx="65.028401"
     inkscape:cy="124.69852"
     inkscape:document-units="px"
     inkscape:current-layer="layer1"
     showgrid="true"
     inkscape:snap-global="true"
     showguides="true"
     inkscape:guide-bbox="true"
     fit-margin-top="5"
     fit-margin-left="5"
     fit-margin-right="5"
     fit-margin-bottom="5"
     inkscape:window-width="1920"
     inkscape:window-height="981"
     inkscape:window-x="1600"
     inkscape:window-y="25"
     inkscape:window-maximized="1">
    <inkscape:grid
       type="axonomgrid"
       id="grid2989"
       units="mm"
       empspacing="5"
       visible="true"
       enabled="true"
       snapvisiblegridlinesonly="true"
       originx="-36.987827mm"
       originy="-172.81471mm" />
    <sodipodi:guide
       orientation="1,0"
       position="7.0275032,87.467546"
       id="guide3063" />
    <sodipodi:guide
       orientation="1,0"
       position="37.713443,69.751006"
       id="guide3065" />
    <sodipodi:guide
       orientation="1,0"
       position="68.399383,52.034476"
       id="guide3067" />
    <sodipodi:guide
       orientation="1,0"
       position="99.085323,59.121086"
       id="guide3069" />
    <sodipodi:guide
       orientation="1,0"
       position="129.77126,87.467546"
       id="guide3071" />
    <sodipodi:guide
       orientation="1,0"
       position="160.4572,87.467546"
       id="guide3073" />
    <sodipodi:guide
       orientation="1,0"
       position="191.14313,87.467546"
       id="guide3075" />
    <sodipodi:guide
       orientation="-0.5,0.8660254"
       position="-100.37329,-27.689934"
       id="guide3273" />
    <sodipodi:guide
       orientation="-0.5,0.8660254"
       position="-146.4022,-18.831664"
       id="guide3275" />
    <sodipodi:guide
       orientation="-0.5,0.8660254"
       position="-284.48893,-45.406474"
       id="guide3277" />
    <sodipodi:guide
       orientation="-0.5,0.8660254"
       position="-299.8319,-18.831664"
       id="guide3279" />
    <sodipodi:guide
       orientation="-0.5,0.8660254"
       position="-11.384064,183.13686"
       id="guide4378" />
    <sodipodi:guide
       orientation="-0.5,0.8660254"
       position="7.0274986,-1.1151006"
       id="guide3985" />
    <sodipodi:guide
       orientation="-0.5,0.8660254"
       position="37.713443,-18.831634"
       id="guide3987" />
    <sodipodi:guide
       orientation="0.5,0.8660254"
       position="129.77126,-18.831639"
       id="guide3989" />
    <sodipodi:guide
       orientation="0.5,0.8660254"
       position="191.14313,-18.831634"
       id="guide3991" />
    <sodipodi:guide
       orientation="0.5,0.8660254"
       position="191.14313,16.601431"
       id="guide3993" />
    <sodipodi:guide
       orientation="0.5,0.8660254"
       position="237.17204,25.459702"
       id="guide3995" />
    <sodipodi:guide
       orientation="0.5,0.8660254"
       position="221.82908,69.75104"
       id="guide3997" />
    <sodipodi:guide
       orientation="0.5,0.8660254"
       position="221.82908,105.18411"
       id="guide3999" />
    <sodipodi:guide
       orientation="0.5,0.8660254"
       position="237.17204,131.75892"
       id="guide4001" />
    <sodipodi:guide
       orientation="0.5,0.8660254"
       position="267.85798,149.47545"
       id="guide4003" />
  </sodipodi:namedview>
  <metadata
     id="metadata7">
    <rdf:RDF>
      <cc:Work
         rdf:about="">
        <dc:format>image/svg+xml</dc:format>
        <dc:type
           rdf:resource="http://purl.org/dc/dcmitype/StillImage" />
        <dc:title />
      </cc:Work>
    </rdf:RDF>
  </metadata>
  <g
     inkscape:label="Layer 1"
     inkscape:groupmode="layer"
     id="layer1"
     transform="translate(-131.05923,-203.57475)">
    <path
       style="fill:none;stroke:#000000;stroke-width:4;stroke-linecap:butt;stroke-linejoin:miter;stroke-miterlimit:4;stroke-opacity:1;stroke-dasharray:none"
       d="m 22.78125,202.1875 -15.34375,8.84375 0,17.71875 15.34375,8.875 15.34375,-8.875 0,-17.71875 -15.34375,-8.84375 z"
       transform="translate(131.08673,195.40158)"
       id="path3835"
       inkscape:connector-curvature="0" />
    <path
       inkscape:connector-curvature="0"
       style="fill:none;stroke:#000000;stroke-width:4;stroke-linecap:butt;stroke-linejoin:miter;stroke-miterlimit:4;stroke-opacity:1;stroke-dasharray:none"
       d="m 184.59644,397.11327 -15.34375,8.84375 0,17.71875 15.34375,8.875 15.34375,-8.875 0,-17.71875 -15.34375,-8.84375 z"
       id="path3835-9" />
    <path
       inkscape:connector-curvature="0"
       style="fill:none;stroke:#000000;stroke-width:4;stroke-linecap:butt;stroke-linejoin:miter;stroke-miterlimit:4;stroke-opacity:1;stroke-dasharray:none"
       d="m 215.39973,396.93104 -15.34375,8.84375 0,17.71875 15.34375,8.875 15.34375,-8.875 0,-17.71875 -15.34375,-8.84375 z"
       id="path3835-98" />
    <path
       inkscape:connector-curvature="0"
       style="fill:none;stroke:#000000;stroke-width:4;stroke-linecap:butt;stroke-linejoin:miter;stroke-miterlimit:4;stroke-opacity:1;stroke-dasharray:none"
       d="m 169.10267,370.67119 -15.34375,8.84375 0,17.71875 15.34375,8.875 15.34375,-8.875 0,-17.71875 -15.34375,-8.84375 z"
       id="path3835-1" />
    <path
       inkscape:connector-curvature="0"
       style="fill:none;stroke:#000000;stroke-width:4;stroke-linecap:butt;stroke-linejoin:miter;stroke-miterlimit:4;stroke-opacity:1;stroke-dasharray:none"
       d="m 199.62993,370.4509 -15.34375,8.84375 0,17.71875 15.34375,8.875 15.34375,-8.875 0,-17.71875 -15.34375,-8.84375 z"
       id="path3835-3" />
    <path
       inkscape:connector-curvature="0"
       style="fill:none;stroke:#000000;stroke-width:4;stroke-linecap:butt;stroke-linejoin:miter;stroke-miterlimit:4;stroke-opacity:1;stroke-dasharray:none"
       d="m 246.02015,397.05588 -15.34375,8.84375 0,17.71875 15.34375,8.875 15.34375,-8.875 0,-17.71875 -15.34375,-8.84375 z"
       id="path3835-98-4" />
    <path
       inkscape:connector-curvature="0"
       style="fill:none;stroke:#000000;stroke-width:4;stroke-linecap:butt;stroke-linejoin:miter;stroke-miterlimit:4;stroke-opacity:1;stroke-dasharray:none"
       d="m 230.512,370.38716 -15.34375,8.84375 0,17.71875 15.34375,8.875 15.34375,-8.875 0,-17.71875 -15.34375,-8.84375 z"
       id="path3835-98-2" />
    <path
       inkscape:connector-curvature="0"
       style="fill:none;stroke:#000000;stroke-width:4;stroke-linecap:butt;stroke-linejoin:miter;stroke-miterlimit:4;stroke-opacity:1;stroke-dasharray:none"
       d="m 276.53768,396.86886 -15.34375,8.84375 0,17.71875 15.34375,8.875 15.34375,-8.875 0,-17.71875 -15.34375,-8.84375 z"
       id="path3835-98-46" />
    <path
       inkscape:connector-curvature="0"
       style="fill:none;stroke:#000000;stroke-width:4;stroke-linecap:butt;stroke-linejoin:miter;stroke-miterlimit:4;stroke-opacity:1;stroke-dasharray:none"
       d="m 307.19059,397.12528 -15.34375,8.84375 0,17.71875 15.34375,8.875 15.34375,-8.875 0,-17.71875 -15.34375,-8.84375 z"
       id="path3835-98-20" />
    <path
       inkscape:connector-curvature="0"
       style="fill:none;stroke:#000000;stroke-width:4;stroke-linecap:butt;stroke-linejoin:miter;stroke-miterlimit:4;stroke-opacity:1;stroke-dasharray:none"
       d="m 261.25238,370.34069 -15.34375,8.84375 0,17.71875 15.34375,8.875 15.34375,-8.875 0,-17.71875 -15.34375,-8.84375 z"
       id="path3835-98-7" />
    <path
       inkscape:connector-curvature="0"
       style="fill:none;stroke:#000000;stroke-width:4;stroke-linecap:butt;stroke-linejoin:miter;stroke-miterlimit:4;stroke-opacity:1;stroke-dasharray:none"
       d="m 291.72391,370.34458 -15.34375,8.84375 0,17.71875 15.34375,8.875 15.34375,-8.875 0,-17.71875 -15.34375,-8.84375 z"
       id="path3835-98-0" />
    <path
       inkscape:connector-curvature="0"
       style="fill:none;stroke:#000000;stroke-width:4;stroke-linecap:butt;stroke-linejoin:miter;stroke-miterlimit:4;stroke-opacity:1;stroke-dasharray:none"
       d="m 322.49543,370.29405 -15.34375,8.84375 0,17.71875 15.34375,8.875 15.34375,-8.875 0,-17.71875 -15.34375,-8.84375 z"
       id="path3835-98-21" />
    <path
       inkscape:connector-curvature="0"
       style="fill:none;stroke:#000000;stroke-width:4;stroke-linecap:butt;stroke-linejoin:miter;stroke-miterlimit:4;stroke-opacity:1;stroke-dasharray:none"
       d="m 153.40298,344.22464 -15.34375,8.84375 0,17.71875 15.34375,8.875 15.34375,-8.875 0,-17.71875 -15.34375,-8.84375 z"
       id="path3835-1-2" />
    <path
       inkscape:connector-curvature="0"
       style="fill:none;stroke:#000000;stroke-width:4;stroke-linecap:butt;stroke-linejoin:miter;stroke-miterlimit:4;stroke-opacity:1;stroke-dasharray:none"
       d="m 183.93024,344.00435 -15.34375,8.84375 0,17.71875 15.34375,8.875 15.34375,-8.875 0,-17.71875 -15.34375,-8.84375 z"
       id="path3835-3-3" />
    <path
       inkscape:connector-curvature="0"
       style="fill:none;stroke:#000000;stroke-width:4;stroke-linecap:butt;stroke-linejoin:miter;stroke-miterlimit:4;stroke-opacity:1;stroke-dasharray:none"
       d="m 214.81231,343.94061 -15.34375,8.84375 0,17.71875 15.34375,8.875 15.34375,-8.875 0,-17.71875 -15.34375,-8.84375 z"
       id="path3835-98-2-3" />
    <path
       inkscape:connector-curvature="0"
       style="fill:none;stroke:#000000;stroke-width:4;stroke-linecap:butt;stroke-linejoin:miter;stroke-miterlimit:4;stroke-opacity:1;stroke-dasharray:none"
       d="m 245.55269,343.89414 -15.34375,8.84375 0,17.71875 15.34375,8.875 15.34375,-8.875 0,-17.71875 -15.34375,-8.84375 z"
       id="path3835-98-7-9" />
    <path
       inkscape:connector-curvature="0"
       style="fill:none;stroke:#000000;stroke-width:4;stroke-linecap:butt;stroke-linejoin:miter;stroke-miterlimit:4;stroke-opacity:1;stroke-dasharray:none"
       d="m 276.02422,343.89803 -15.34375,8.84375 0,17.71875 15.34375,8.875 15.34375,-8.875 0,-17.71875 -15.34375,-8.84375 z"
       id="path3835-98-0-8" />
    <path
       inkscape:connector-curvature="0"
       style="fill:none;stroke:#000000;stroke-width:4;stroke-linecap:butt;stroke-linejoin:miter;stroke-miterlimit:4;stroke-opacity:1;stroke-dasharray:none"
       d="m 306.79574,343.8475 -15.34375,8.84375 0,17.71875 15.34375,8.875 15.34375,-8.875 0,-17.71875 -15.34375,-8.84375 z"
       id="path3835-98-21-6" />
    <path
       inkscape:connector-curvature="0"
       style="fill:none;stroke:#000000;stroke-width:4;stroke-linecap:butt;stroke-linejoin:miter;stroke-miterlimit:4;stroke-opacity:1;stroke-dasharray:none"
       d="m 168.73061,317.26516 -15.34375,8.84375 0,17.71875 15.34375,8.875 15.34375,-8.875 0,-17.71875 -15.34375,-8.84375 z"
       id="path3835-1-9" />
    <path
       inkscape:connector-curvature="0"
       style="fill:none;stroke:#000000;stroke-width:4;stroke-linecap:butt;stroke-linejoin:miter;stroke-miterlimit:4;stroke-opacity:1;stroke-dasharray:none"
       d="m 199.25787,317.04487 -15.34375,8.84375 0,17.71875 15.34375,8.875 15.34375,-8.875 0,-17.71875 -15.34375,-8.84375 z"
       id="path3835-3-7" />
    <path
       inkscape:connector-curvature="0"
       style="fill:none;stroke:#000000;stroke-width:4;stroke-linecap:butt;stroke-linejoin:miter;stroke-miterlimit:4;stroke-opacity:1;stroke-dasharray:none"
       d="m 230.13994,316.98113 -15.34375,8.84375 0,17.71875 15.34375,8.875 15.34375,-8.875 0,-17.71875 -15.34375,-8.84375 z"
       id="path3835-98-2-6" />
    <path
       inkscape:connector-curvature="0"
       style="fill:none;stroke:#000000;stroke-width:4;stroke-linecap:butt;stroke-linejoin:miter;stroke-miterlimit:4;stroke-opacity:1;stroke-dasharray:none"
       d="m 260.88032,316.93466 -15.34375,8.84375 0,17.71875 15.34375,8.875 15.34375,-8.875 0,-17.71875 -15.34375,-8.84375 z"
       id="path3835-98-7-5" />
    <path
       inkscape:connector-curvature="0"
       style="fill:none;stroke:#000000;stroke-width:4;stroke-linecap:butt;stroke-linejoin:miter;stroke-miterlimit:4;stroke-opacity:1;stroke-dasharray:none"
       d="m 291.35185,316.93855 -15.34375,8.84375 0,17.71875 15.34375,8.875 15.34375,-8.875 0,-17.71875 -15.34375,-8.84375 z"
       id="path3835-98-0-4" />
    <path
       inkscape:connector-curvature="0"
       style="fill:none;stroke:#000000;stroke-width:4;stroke-linecap:butt;stroke-linejoin:miter;stroke-miterlimit:4;stroke-opacity:1;stroke-dasharray:none"
       d="m 322.12337,316.88802 -15.34375,8.84375 0,17.71875 15.34375,8.875 15.34375,-8.875 0,-17.71875 -15.34375,-8.84375 z"
       id="path3835-98-21-3" />
    <path
       inkscape:connector-curvature="0"
       style="fill:none;stroke:#000000;stroke-width:4;stroke-linecap:butt;stroke-linejoin:miter;stroke-miterlimit:4;stroke-opacity:1;stroke-dasharray:none"
       d="m 153.6504,290.80696 -15.34375,8.84375 0,17.71875 15.34375,8.875 15.34375,-8.875 0,-17.71875 -15.34375,-8.84375 z"
       id="path3835-1-9-5" />
    <path
       inkscape:connector-curvature="0"
       style="fill:none;stroke:#000000;stroke-width:4;stroke-linecap:butt;stroke-linejoin:miter;stroke-miterlimit:4;stroke-opacity:1;stroke-dasharray:none"
       d="m 184.17766,290.58667 -15.34375,8.84375 0,17.71875 15.34375,8.875 15.34375,-8.875 0,-17.71875 -15.34375,-8.84375 z"
       id="path3835-3-7-7" />
    <path
       inkscape:connector-curvature="0"
       style="fill:none;stroke:#000000;stroke-width:4;stroke-linecap:butt;stroke-linejoin:miter;stroke-miterlimit:4;stroke-opacity:1;stroke-dasharray:none"
       d="m 215.05973,290.52293 -15.34375,8.84375 0,17.71875 15.34375,8.875 15.34375,-8.875 0,-17.71875 -15.34375,-8.84375 z"
       id="path3835-98-2-6-1" />
    <path
       inkscape:connector-curvature="0"
       style="fill:none;stroke:#000000;stroke-width:4;stroke-linecap:butt;stroke-linejoin:miter;stroke-miterlimit:4;stroke-opacity:1;stroke-dasharray:none"
       d="m 245.80011,290.47646 -15.34375,8.84375 0,17.71875 15.34375,8.875 15.34375,-8.875 0,-17.71875 -15.34375,-8.84375 z"
       id="path3835-98-7-5-0" />
    <path
       inkscape:connector-curvature="0"
       style="fill:none;stroke:#000000;stroke-width:4;stroke-linecap:butt;stroke-linejoin:miter;stroke-miterlimit:4;stroke-opacity:1;stroke-dasharray:none"
       d="m 276.27164,290.48035 -15.34375,8.84375 0,17.71875 15.34375,8.875 15.34375,-8.875 0,-17.71875 -15.34375,-8.84375 z"
       id="path3835-98-0-4-7" />
    <path
       inkscape:connector-curvature="0"
       style="fill:none;stroke:#000000;stroke-width:4;stroke-linecap:butt;stroke-linejoin:miter;stroke-miterlimit:4;stroke-opacity:1;stroke-dasharray:none"
       d="m 307.04316,290.42982 -15.34375,8.84375 0,17.71875 15.34375,8.875 15.34375,-8.875 0,-17.71875 -15.34375,-8.84375 z"
       id="path3835-98-21-3-1" />
    <path
       inkscape:connector-curvature="0"
       style="fill:none;stroke:#000000;stroke-width:4;stroke-linecap:butt;stroke-linejoin:miter;stroke-miterlimit:4;stroke-opacity:1;stroke-dasharray:none"
       d="m 168.94502,263.92132 -15.34375,8.84375 0,17.71875 15.34375,8.875 15.34375,-8.875 0,-17.71875 -15.34375,-8.84375 z"
       id="path3835-1-9-8" />
    <path
       inkscape:connector-curvature="0"
       style="fill:none;stroke:#000000;stroke-width:4;stroke-linecap:butt;stroke-linejoin:miter;stroke-miterlimit:4;stroke-opacity:1;stroke-dasharray:none"
       d="m 199.47228,263.70103 -15.34375,8.84375 0,17.71875 15.34375,8.875 15.34375,-8.875 0,-17.71875 -15.34375,-8.84375 z"
       id="path3835-3-7-8" />
    <path
       inkscape:connector-curvature="0"
       style="fill:none;stroke:#000000;stroke-width:4;stroke-linecap:butt;stroke-linejoin:miter;stroke-miterlimit:4;stroke-opacity:1;stroke-dasharray:none"
       d="m 230.35435,263.63729 -15.34375,8.84375 0,17.71875 15.34375,8.875 15.34375,-8.875 0,-17.71875 -15.34375,-8.84375 z"
       id="path3835-98-2-6-4" />
    <path
       inkscape:connector-curvature="0"
       style="fill:none;stroke:#000000;stroke-width:4;stroke-linecap:butt;stroke-linejoin:miter;stroke-miterlimit:4;stroke-opacity:1;stroke-dasharray:none"
       d="m 261.09473,263.59082 -15.34375,8.84375 0,17.71875 15.34375,8.875 15.34375,-8.875 0,-17.71875 -15.34375,-8.84375 z"
       id="path3835-98-7-5-4" />
    <path
       inkscape:connector-curvature="0"
       style="fill:none;stroke:#000000;stroke-width:4;stroke-linecap:butt;stroke-linejoin:miter;stroke-miterlimit:4;stroke-opacity:1;stroke-dasharray:none"
       d="m 291.56626,263.59471 -15.34375,8.84375 0,17.71875 15.34375,8.875 15.34375,-8.875 0,-17.71875 -15.34375,-8.84375 z"
       id="path3835-98-0-4-2" />
    <path
       inkscape:connector-curvature="0"
       style="fill:none;stroke:#000000;stroke-width:4;stroke-linecap:butt;stroke-linejoin:miter;stroke-miterlimit:4;stroke-opacity:1;stroke-dasharray:none"
       d="m 322.33778,263.54418 -15.34375,8.84375 0,17.71875 15.34375,8.875 15.34375,-8.875 0,-17.71875 -15.34375,-8.84375 z"
       id="path3835-98-21-3-0" />
    <path
       inkscape:connector-curvature="0"
       style="fill:none;stroke:#000000;stroke-width:4;stroke-linecap:butt;stroke-linejoin:miter;stroke-miterlimit:4;stroke-opacity:1;stroke-dasharray:none"
       d="m 154.02199,237.91196 -15.34375,8.84375 0,17.71875 15.34375,8.875 15.34375,-8.875 0,-17.71875 -15.34375,-8.84375 z"
       id="path3835-1-9-3" />
    <path
       inkscape:connector-curvature="0"
       style="fill:none;stroke:#000000;stroke-width:4;stroke-linecap:butt;stroke-linejoin:miter;stroke-miterlimit:4;stroke-opacity:1;stroke-dasharray:none"
       d="m 184.54925,237.69167 -15.34375,8.84375 0,17.71875 15.34375,8.875 15.34375,-8.875 0,-17.71875 -15.34375,-8.84375 z"
       id="path3835-3-7-4" />
    <path
       inkscape:connector-curvature="0"
       style="fill:none;stroke:#000000;stroke-width:4;stroke-linecap:butt;stroke-linejoin:miter;stroke-miterlimit:4;stroke-opacity:1;stroke-dasharray:none"
       d="m 215.43132,237.62793 -15.34375,8.84375 0,17.71875 15.34375,8.875 15.34375,-8.875 0,-17.71875 -15.34375,-8.84375 z"
       id="path3835-98-2-6-12" />
    <path
       inkscape:connector-curvature="0"
       style="fill:none;stroke:#000000;stroke-width:4;stroke-linecap:butt;stroke-linejoin:miter;stroke-miterlimit:4;stroke-opacity:1;stroke-dasharray:none"
       d="m 246.1717,237.58146 -15.34375,8.84375 0,17.71875 15.34375,8.875 15.34375,-8.875 0,-17.71875 -15.34375,-8.84375 z"
       id="path3835-98-7-5-45" />
    <path
       inkscape:connector-curvature="0"
       style="fill:none;stroke:#000000;stroke-width:4;stroke-linecap:butt;stroke-linejoin:miter;stroke-miterlimit:4;stroke-opacity:1;stroke-dasharray:none"
       d="m 276.64323,237.58535 -15.34375,8.84375 0,17.71875 15.34375,8.875 15.34375,-8.875 0,-17.71875 -15.34375,-8.84375 z"
       id="path3835-98-0-4-3" />
    <path
       inkscape:connector-curvature="0"
       style="fill:none;stroke:#000000;stroke-width:4;stroke-linecap:butt;stroke-linejoin:miter;stroke-miterlimit:4;stroke-opacity:1;stroke-dasharray:none"
       d="m 307.41475,237.53482 -15.34375,8.84375 0,17.71875 15.34375,8.875 15.34375,-8.875 0,-17.71875 -15.34375,-8.84375 z"
       id="path3835-98-21-3-7" />
    <path
       inkscape:connector-curvature="0"
       style="fill:none;stroke:#000000;stroke-width:4;stroke-linecap:butt;stroke-linejoin:miter;stroke-miterlimit:4;stroke-opacity:1;stroke-dasharray:none"
       d="m 168.83889,210.95189 -15.34375,8.84375 0,17.71875 15.34375,8.875 15.34375,-8.875 0,-17.71875 -15.34375,-8.84375 z"
       id="path3835-1-9-1" />
    <path
       inkscape:connector-curvature="0"
       style="fill:none;stroke:#000000;stroke-width:4;stroke-linecap:butt;stroke-linejoin:miter;stroke-miterlimit:4;stroke-opacity:1;stroke-dasharray:none"
       d="m 199.36615,210.7316 -15.34375,8.84375 0,17.71875 15.34375,8.875 15.34375,-8.875 0,-17.71875 -15.34375,-8.84375 z"
       id="path3835-3-7-88" />
    <path
       inkscape:connector-curvature="0"
       style="fill:none;stroke:#000000;stroke-width:4;stroke-linecap:butt;stroke-linejoin:miter;stroke-miterlimit:4;stroke-opacity:1;stroke-dasharray:none"
       d="m 230.24822,210.66786 -15.34375,8.84375 0,17.71875 15.34375,8.875 15.34375,-8.875 0,-17.71875 -15.34375,-8.84375 z"
       id="path3835-98-2-6-9" />
    <path
       inkscape:connector-curvature="0"
       style="fill:none;stroke:#000000;stroke-width:4;stroke-linecap:butt;stroke-linejoin:miter;stroke-miterlimit:4;stroke-opacity:1;stroke-dasharray:none"
       d="m 260.9886,210.62139 -15.34375,8.84375 0,17.71875 15.34375,8.875 15.34375,-8.875 0,-17.71875 -15.34375,-8.84375 z"
       id="path3835-98-7-5-47" />
    <path
       inkscape:connector-curvature="0"
       style="fill:none;stroke:#000000;stroke-width:4;stroke-linecap:butt;stroke-linejoin:miter;stroke-miterlimit:4;stroke-opacity:1;stroke-dasharray:none"
       d="m 291.46013,210.62528 -15.34375,8.84375 0,17.71875 15.34375,8.875 15.34375,-8.875 0,-17.71875 -15.34375,-8.84375 z"
       id="path3835-98-0-4-73" />
    <path
       inkscape:connector-curvature="0"
       style="fill:none;stroke:#000000;stroke-width:4;stroke-linecap:butt;stroke-linejoin:miter;stroke-miterlimit:4;stroke-opacity:1;stroke-dasharray:none"
       d="m 322.23165,210.57475 -15.34375,8.84375 0,17.71875 15.34375,8.875 15.34375,-8.875 0,-17.71875 -15.34375,-8.84375 z"
       id="path3835-98-21-3-4" />
  </g>
</svg>
